<svg xmlns="http://www.w3.org/2000/svg" width="94.903" height="94.903" viewBox="0 0 94.903 94.903">
  <path id="_8546939_git_square_icon" data-name="8546939_git_square_icon" d="M21.309,96.025c10.289.7,12.488.447,12.488,2.529,0,4.237-13.886,4.249-13.886.322a4.777,4.777,0,0,1,1.4-2.851Zm5.921-24.709c-6.84,0-7.149,9.42-.159,9.42A4.722,4.722,0,1,0,27.229,71.317ZM94.9,42.168v74.566A10.168,10.168,0,0,1,84.735,126.9H10.168A10.168,10.168,0,0,1,0,116.735V42.168A10.168,10.168,0,0,1,10.168,32H84.735A10.168,10.168,0,0,1,94.9,42.168ZM46.816,56.851c0,3.07,1.775,4.847,4.843,4.847,3.122,0,4.9-1.777,4.9-4.847s-1.773-4.726-4.9-4.726C48.6,52.124,46.816,53.785,46.816,56.851Zm-4.622,9.679H31.7c-5.3-1.388-17.277-1.027-17.277,9.9a8.6,8.6,0,0,0,4.629,8.073c-3.324,3.044-4.9,4.478-4.9,6.512a3.585,3.585,0,0,0,2.368,3.55c-1.885,1.779-2.966,3.067-2.966,5.491,0,4.252,3.718,6.719,13.46,6.719,9.367,0,14.8-3.5,14.8-9.687,0-7.768-5.98-7.482-20.076-8.342L23.514,85.9c3.6,1,15.716,1.32,15.716-8.988a8.536,8.536,0,0,0-1.991-5.438l4.953-.377ZM60.06,89.8l-2.754-.377c-.809-.108-.862-.212-.862-1.078V66H45.3l-.591,4.357c3.336,1.176,3.6,1.03,3.6,2.154V88.349c0,1.191-.066.97-3.6,1.455v4.249H60.051ZM81.345,91.95,79.89,87.211c-8.67,3.256-8.018-2.629-8.018-3.544V70.8H79.89V65.421H72.3c-.608,0-.424.534-.424-8.183H66.756c-.591,5.868-2.474,8.236-7.2,8.774V70.8c4.336,0,4.2-.18,4.2.538v14.1c0,6.084,2.421,8.666,8.827,8.666a21.388,21.388,0,0,0,8.766-2.161Z" transform="translate(0 -32)"/>
</svg>
