<svg id="_x32_88-sass" xmlns="http://www.w3.org/2000/svg" width="146.927" height="110.174" viewBox="0 0 146.927 110.174">
  <g id="Group_28" data-name="Group 28">
    <g id="Group_27" data-name="Group 27">
      <path id="Path_10" data-name="Path 10" d="M152.49,146.861a30.114,30.114,0,0,0-13.311,3.1c-1.354-2.732-2.755-5.119-2.984-6.909a18.453,18.453,0,0,1-.252-5.807A48.862,48.862,0,0,1,137.686,131c-.023-.252-.321-1.515-3.282-1.538s-5.508.574-5.807,1.354a28.138,28.138,0,0,0-1.216,4.384c-.528,2.685-5.922,12.279-8.974,17.282a17.832,17.832,0,0,1-2.043-5.049,18.443,18.443,0,0,1-.252-5.807,48.881,48.881,0,0,1,1.744-6.243c-.023-.252-.321-1.515-3.282-1.538s-5.508.574-5.807,1.354-.62,2.616-1.216,4.384-7.781,17.74-9.662,21.895c-.964,2.111-1.79,3.81-2.387,4.958-.091.183-.16.3-.206.39.069-.115.115-.23.115-.183-.5.986-.8,1.537-.8,1.537v.023c-.39.734-.826,1.4-1.033,1.4-.138,0-.436-1.927.069-4.567,1.078-5.554,3.626-14.183,3.6-14.482-.023-.161.482-1.652-1.676-2.456a2.7,2.7,0,0,0-3.029.505c-.183,0-.321.459-.321.459s2.318-9.731-4.453-9.731c-4.223,0-10.1,4.637-12.99,8.837-1.813.987-5.738,3.121-9.869,5.393-1.584.872-3.213,1.767-4.751,2.617-.115-.115-.207-.23-.321-.345-8.217-8.767-23.387-14.964-22.744-26.738.229-4.292,1.721-15.56,29.171-29.239,22.492-11.2,40.486-8.125,43.585-1.285,4.452,9.754-9.617,27.909-32.981,30.525-8.905.987-13.587-2.456-14.757-3.741-1.217-1.354-1.4-1.423-1.859-1.171-.758.413-.275,1.607,0,2.318.689,1.813,3.557,5.026,8.446,6.633,4.291,1.4,14.734,2.181,27.357-2.708,14.184-5.463,25.224-20.679,21.987-33.417-3.3-12.944-24.764-17.19-45.076-9.984-12.1,4.292-25.177,11.04-34.587,19.83C27.2,117.323,25.41,126.434,26.144,130.244c2.617,13.518,21.253,22.331,28.712,28.849-.367.207-.712.39-1.033.574-3.741,1.859-17.948,9.295-21.505,17.145-4.016,8.9.665,15.285,3.741,16.157,9.593,2.662,19.417-2.135,24.7-10.007s4.636-18.154,2.2-22.836c-.023-.069-.069-.114-.092-.184.964-.573,1.95-1.147,2.938-1.721,1.9-1.125,3.764-2.158,5.393-3.052a35.635,35.635,0,0,0-1.928,9.777c-.413,5.049,1.676,11.59,4.384,14.161a4.821,4.821,0,0,0,3.534,1.148c3.167,0,4.59-2.617,6.174-5.738,1.951-3.811,3.672-8.24,3.672-8.24s-2.157,11.981,3.741,11.981c2.157,0,4.315-2.777,5.279-4.2v.023s.046-.091.161-.275c.229-.345.344-.551.344-.551v-.069c.872-1.492,2.777-4.912,5.646-10.557,3.719-7.3,7.276-16.411,7.276-16.411a46.125,46.125,0,0,0,1.424,5.922,55.416,55.416,0,0,0,3.075,6.886c-.872,1.193-1.4,1.882-1.4,1.882a.072.072,0,0,0,.022.046c-.688.919-1.468,1.906-2.272,2.87-2.938,3.488-6.427,7.482-6.885,8.63-.551,1.354-.413,2.363.643,3.144a5.583,5.583,0,0,0,3.6.574,15.9,15.9,0,0,0,5.394-1.24,18.858,18.858,0,0,0,4.636-2.432,10.358,10.358,0,0,0,4.452-9.134,19,19,0,0,0-1.676-6.472c.253-.368.528-.758.781-1.148a122,122,0,0,0,8.056-13.908,46.226,46.226,0,0,0,1.423,5.921,40.512,40.512,0,0,0,2.616,5.9c-4.269,3.466-6.908,7.483-7.826,10.121-1.7,4.889-.367,7.092,2.134,7.6a7.7,7.7,0,0,0,3.925-.8,18.219,18.219,0,0,0,4.957-2.548c2.869-2.111,5.646-5.072,5.463-9.089a17.085,17.085,0,0,0-1.24-5.371,28.024,28.024,0,0,1,14.253-1.652c12.784,1.492,15.285,9.479,14.8,12.806a8.423,8.423,0,0,1-4.062,5.738c-.9.551-1.171.758-1.1,1.171.114.6.527.574,1.285.436,1.056-.183,6.7-2.708,6.954-8.882.368-7.8-7.137-16.387-20.425-16.318Zm-98.529,33.21c-4.223,4.613-10.144,6.358-12.691,4.889-2.731-1.583-1.653-8.377,3.557-13.289a68.02,68.02,0,0,1,9.961-7.436c.62-.367,1.515-.918,2.617-1.584.184-.114.275-.16.275-.16.206-.138.436-.253.666-.391a18.314,18.314,0,0,1-4.384,17.97Zm30.846-20.977c-1.469,3.6-4.568,12.784-6.449,12.3-1.607-.413-2.594-7.413-.321-14.3a31.63,31.63,0,0,1,5.026-9.2c2.318-2.594,4.865-3.42,5.462-2.387.8,1.354-2.8,11.338-3.718,13.587Zm25.475,12.165c-.619.321-1.193.527-1.469.367-.206-.115.253-.551.253-.551s3.19-3.42,4.452-4.981c.734-.918,1.583-2,2.5-3.19,0,.114.022.23.022.367C116.021,167.379,112.073,170.157,110.283,171.258Zm19.647-4.476c-.459-.321-.391-1.4,1.147-4.751a17.886,17.886,0,0,1,4.361-5.623,8.292,8.292,0,0,1,.436,2.478c-.023,5.164-3.718,7.092-5.944,7.9Z" transform="translate(-26.001 -83.535)" fill="#cf649a"/>
    </g>
  </g>
</svg>
