<svg id="_x33__x2C__XD_x2C__Adobe" xmlns="http://www.w3.org/2000/svg" width="110.124" height="108.87" viewBox="0 0 110.124 108.87">
  <g id="Group_31" data-name="Group 31" transform="translate(0 0)">
    <path id="Path_12" data-name="Path 12" d="M0,0H110.124V108.87H0Z" transform="translate(0 0)" fill="#ff26be"/>
    <rect id="Rectangle_8" data-name="Rectangle 8" width="102.423" height="102.423" transform="translate(3.85 3.224)" fill="#2e001f"/>
    <g id="Group_30" data-name="Group 30" transform="translate(19.983 28.347)">
      <g id="Group_29" data-name="Group 29">
        <path id="Path_11" data-name="Path 11" d="M134.243,137.4H125.47l-9.417,19.7-9.544-19.7H97.472l12.79,25.575L97.016,189.158h8.93l9.586-20.069,9.7,20.069H134.9l-13.653-26.495Zm24.252,0v13.162h-2.528c-8.627,0-19.056,5.563-19.056,19.773,0,10.985,5.566,19.242,17.421,19.242,8.729,0,12.841-3.02,12.841-3.02V137.4Zm-.009,44.615a9.235,9.235,0,0,1-3.357.439c-2.358,0-9.59-1.039-9.59-12.508s8.312-12.387,10.309-12.387a4.256,4.256,0,0,1,2.638.56v23.9Z" transform="translate(-97.016 -137.396)" fill="#ffd9f2"/>
      </g>
    </g>
  </g>
</svg>
